<svg width="650" height="600" viewBox="0 0 650 600" xmlns="http://www.w3.org/2000/svg">
  <defs>
    <!-- 그림자 효과들 -->
    <filter id="deepShadow" x="-50%" y="-50%" width="200%" height="200%">
      <feGaussianBlur in="SourceAlpha" stdDeviation="8"/>
      <feOffset dx="0" dy="4" result="offsetblur"/>
      <feComponentTransfer>
        <feFuncA type="linear" slope="0.5"/>
      </feComponentTransfer>
      <feMerge>
        <feMergeNode/>
        <feMergeNode in="SourceGraphic"/>
      </feMerge>
    </filter>
    
    <filter id="innerShadow" x="-50%" y="-50%" width="200%" height="200%">
      <feGaussianBlur in="SourceAlpha" stdDeviation="6"/>
      <feOffset dx="0" dy="3"/>
      <feComposite in2="SourceAlpha" operator="arithmetic" k2="-1" k3="1"/>
      <feColorMatrix values="0 0 0 0 0 0 0 0 0 0 0 0 0 0 0 0 0 0 0.7 0"/>
      <feBlend in2="SourceGraphic" mode="normal"/>
    </filter>

    <filter id="wellShadow" x="-50%" y="-50%" width="200%" height="200%">
      <feGaussianBlur in="SourceAlpha" stdDeviation="10"/>
      <feOffset dx="0" dy="5"/>
      <feComposite in2="SourceAlpha" operator="arithmetic" k2="-1" k3="1"/>
      <feColorMatrix values="0 0 0 0 0 0 0 0 0 0 0 0 0 0 0 0 0 0 0.9 0"/>
      <feBlend in2="SourceGraphic" mode="normal"/>
    </filter>

    <!-- 금속 그라디언트 -->
    <radialGradient id="metalGradient" cx="40%" cy="40%">
      <stop offset="0%" style="stop-color:#4a4a4a;stop-opacity:1" />
      <stop offset="50%" style="stop-color:#2a2a2a;stop-opacity:1" />
      <stop offset="100%" style="stop-color:#1a1a1a;stop-opacity:1" />
    </radialGradient>

    <!-- 플래터 그라디언트 -->
    <radialGradient id="platterGradient" cx="45%" cy="45%">
      <stop offset="0%" style="stop-color:#3a3a3a;stop-opacity:1" />
      <stop offset="40%" style="stop-color:#252525;stop-opacity:1" />
      <stop offset="70%" style="stop-color:#1a1a1a;stop-opacity:1" />
      <stop offset="100%" style="stop-color:#0a0a0a;stop-opacity:1" />
    </radialGradient>

    <!-- 반짝이는 효과 -->
    <radialGradient id="shineGradient" cx="30%" cy="30%">
      <stop offset="0%" style="stop-color:#ffffff;stop-opacity:0.15" />
      <stop offset="50%" style="stop-color:#ffffff;stop-opacity:0.05" />
      <stop offset="100%" style="stop-color:#ffffff;stop-opacity:0" />
    </radialGradient>

    <!-- 센터 스핀들 그라디언트 -->
    <radialGradient id="spindleGradient" cx="50%" cy="50%">
      <stop offset="0%" style="stop-color:#666666;stop-opacity:1" />
      <stop offset="50%" style="stop-color:#333333;stop-opacity:1" />
      <stop offset="100%" style="stop-color:#1a1a1a;stop-opacity:1" />
    </radialGradient>

    <!-- CD 웰(Well) 그라디언트 - 매우 오목한 느낌 -->
    <radialGradient id="wellGradient" cx="50%" cy="50%">
      <stop offset="0%" style="stop-color:#000000;stop-opacity:1" />
      <stop offset="50%" style="stop-color:#0a0a0a;stop-opacity:1" />
      <stop offset="80%" style="stop-color:#151515;stop-opacity:1" />
      <stop offset="100%" style="stop-color:#2a2a2a;stop-opacity:1" />
    </radialGradient>
  </defs>

  <!-- 베이스 플레이트 (살짝 가로로 긴 직사각형) -->
  <rect x="20" y="20" width="610" height="560" rx="30" fill="url(#metalGradient)" filter="url(#deepShadow)"/>
  <rect x="35" y="35" width="580" height="530" rx="20" fill="#2a2a2a"/>

  <!-- 플래터 외곽 링 (3D 효과) - 중앙에 크게 배치 -->
  <ellipse cx="300" cy="300" rx="245" ry="245" fill="#1a1a1a" filter="url(#deepShadow)"/>
  <ellipse cx="300" cy="300" rx="240" ry="240" fill="url(#platterGradient)"/>
  
  <!-- 플래터 표면 디테일 -->
  <ellipse cx="300" cy="300" rx="235" ry="235" fill="none" stroke="#404040" stroke-width="1" opacity="0.3"/>
  <ellipse cx="300" cy="300" rx="230" ry="230" fill="none" stroke="#303030" stroke-width="2"/>
  <ellipse cx="300" cy="300" rx="225" ry="225" fill="none" stroke="#404040" stroke-width="0.5" opacity="0.5"/>
  
  <!-- 반짝이는 효과 -->
  <ellipse cx="300" cy="300" rx="230" ry="230" fill="url(#shineGradient)"/>

  <!-- 회전 표시 홈들 (더 리얼한 느낌) -->
  <g opacity="0.2">
    <ellipse cx="300" cy="300" rx="210" ry="210" fill="none" stroke="#505050" stroke-width="0.5"/>
    <ellipse cx="300" cy="300" rx="190" ry="190" fill="none" stroke="#505050" stroke-width="0.5"/>
    <ellipse cx="300" cy="300" rx="170" ry="170" fill="none" stroke="#505050" stroke-width="0.5"/>
    <ellipse cx="300" cy="300" rx="150" ry="150" fill="none" stroke="#505050" stroke-width="0.5"/>
    <ellipse cx="300" cy="300" rx="130" ry="130" fill="none" stroke="#505050" stroke-width="0.5"/>
  </g>

  <!-- CD가 들어가는 웰(Well) 공간 - CD보다 살짝 큼, 확실하게 보이도록! -->
  <g>
    <!-- 웰 외곽 테두리 (확실하게 튀어나온 립) -->
    <ellipse cx="300" cy="300" rx="168" ry="168" fill="none" stroke="#404040" stroke-width="3" opacity="0.8"/>
    <ellipse cx="300" cy="300" rx="166" ry="166" fill="none" stroke="#555555" stroke-width="2"/>
    
    <!-- 웰 내부 (깊게 파인 부분) -->
    <ellipse cx="300" cy="300" rx="164" ry="164" fill="url(#wellGradient)" filter="url(#wellShadow)"/>
    
    <!-- 웰 내부 그림자 효과 (깊이감 강조) -->
    <ellipse cx="300" cy="300" rx="163" ry="163" fill="none" stroke="#000000" stroke-width="6" opacity="0.8"/>
    <ellipse cx="300" cy="300" rx="161" ry="161" fill="none" stroke="#000000" stroke-width="4" opacity="0.6"/>
    <ellipse cx="300" cy="300" rx="159" ry="159" fill="none" stroke="#0a0a0a" stroke-width="3" opacity="0.7"/>
    
    <!-- 웰 바닥 디테일 -->
    <ellipse cx="300" cy="300" rx="156" ry="156" fill="none" stroke="#1a1a1a" stroke-width="1" opacity="0.5"/>
    <ellipse cx="300" cy="300" rx="151" ry="151" fill="none" stroke="#151515" stroke-width="0.5" opacity="0.4"/>
  </g>

  <!-- 센터 스핀들 영역 -->
  <ellipse cx="300" cy="300" rx="90" ry="90" fill="#181818" filter="url(#innerShadow)"/>
  <ellipse cx="300" cy="300" rx="85" ry="85" fill="url(#spindleGradient)"/>
  
  <!-- 스핀들 디테일 -->
  <ellipse cx="300" cy="300" rx="80" ry="80" fill="none" stroke="#404040" stroke-width="1" opacity="0.4"/>
  <ellipse cx="300" cy="300" rx="35" ry="35" fill="#252525"/>
  <ellipse cx="300" cy="300" rx="30" ry="30" fill="url(#spindleGradient)"/>
  <ellipse cx="300" cy="300" rx="25" ry="25" fill="#1a1a1a"/>
  
  <!-- 중앙 스핀들 (CD가 끼워지는 부분) -->
  <ellipse cx="300" cy="300" rx="18" ry="18" fill="#333333"/>
  <ellipse cx="300" cy="300" rx="15" ry="15" fill="#0a0a0a"/>
  <ellipse cx="300" cy="300" rx="10" ry="10" fill="#1a1a1a"/>

  <!-- 톤암 베이스 (오른쪽 상단) - 베이스만 남기고 톤암은 제거 -->
  <g filter="url(#deepShadow)">
    <circle cx="520" cy="120" r="45" fill="#2a2a2a"/>
    <circle cx="520" cy="120" r="40" fill="url(#metalGradient)"/>
    <circle cx="520" cy="120" r="35" fill="#1a1a1a"/>
    <circle cx="520" cy="120" r="30" fill="url(#spindleGradient)"/>
  </g>

  <!-- 컨트롤 패널 -->
  <g transform="translate(90, 490)">
    <!-- RPM 선택 버튼 -->
    <rect width="100" height="50" rx="8" fill="#1a1a1a" filter="url(#innerShadow)"/>
    <rect x="3" y="3" width="94" height="44" rx="6" fill="#252525"/>
    
    <!-- 33 RPM 버튼 -->
    <circle cx="30" cy="25" r="12" fill="#2a2a2a"/>
    <circle cx="30" cy="25" r="10" fill="#10b981"/>
    <text x="30" y="29" font-family="Arial, sans-serif" font-size="11" font-weight="bold" fill="#ffffff" text-anchor="middle">33</text>
    
    <!-- 45 RPM 버튼 -->
    <circle cx="70" cy="25" r="12" fill="#2a2a2a"/>
    <circle cx="70" cy="25" r="10" fill="#3a3a3a"/>
    <text x="70" y="29" font-family="Arial, sans-serif" font-size="11" font-weight="bold" fill="#666666" text-anchor="middle">45</text>
  </g>

  <!-- 피치 컨트롤 -->
  <g transform="translate(220, 505)">
    <rect width="60" height="20" rx="10" fill="#1a1a1a"/>
    <rect x="2" y="2" width="56" height="16" rx="8" fill="#0a0a0a"/>
    <rect x="20" y="4" width="20" height="12" rx="2" fill="#3a3a3a"/>
    <text x="30" y="12.5" font-family="Arial, sans-serif" font-size="7" fill="#888888" text-anchor="middle">PITCH</text>
  </g>

  <!-- 전원 LED -->
  <circle cx="570" cy="510" r="6" fill="#1a1a1a"/>
  <circle cx="570" cy="510" r="4" fill="#ef4444"/>
  <circle cx="570" cy="510" r="3" fill="#fca5a5" opacity="0.6"/>

  <!-- 브랜드 로고 -->
  <text x="325" y="555" font-family="Arial, sans-serif" font-size="16" font-weight="bold" fill="#3a3a3a" text-anchor="middle" opacity="0.5">ASTER</text>
</svg>
